<?xml version="1.0" standalone="no"?>
<!DOCTYPE svg PUBLIC "-//W3C//DTD SVG 20010904//EN"
 "http://www.w3.org/TR/2001/REC-SVG-20010904/DTD/svg10.dtd">
<svg version="1.0" xmlns="http://www.w3.org/2000/svg"
 width="700.000000pt" height="700.000000pt" viewBox="0 0 700.000000 700.000000"
 preserveAspectRatio="xMidYMid meet">
<metadata>
Created by potrace 1.14, written by Peter Selinger 2001-2017
</metadata>
<g transform="translate(0.000000,700.000000) scale(0.100000,-0.100000)"
fill="#000000" stroke="none">
<path d="M0 3500 l0 -3500 3500 0 3500 0 0 3500 0 3500 -3500 0 -3500 0 0
-3500z m5065 2440 c563 -111 967 -653 907 -1218 -51 -488 -418 -1164 -1035
-1905 -116 -139 -87 -144 -241 42 -332 404 -619 836 -787 1185 -255 532 -283
903 -99 1282 226 466 738 716 1255 614z m-2419 -1518 c53 -27 107 -88 129
-145 27 -71 18 -170 -21 -233 -80 -131 -252 -167 -381 -81 -69 46 -104 110
-111 197 -9 133 62 240 188 281 43 14 152 4 196 -19z m-330 -567 c27 -14 64
-39 81 -57 17 -18 99 -147 183 -285 l152 -253 269 0 269 0 0 -135 0 -135 -367
2 -366 3 -59 95 c-32 52 -68 111 -80 130 l-21 35 -53 -215 -53 -215 185 -332
184 -332 0 -480 0 -481 -130 0 -130 0 0 369 0 369 -171 231 c-94 128 -174 230
-176 227 -3 -3 -101 -272 -218 -598 l-212 -593 -136 -3 -136 -3 9 33 c72 271
569 2252 566 2255 -3 3 -71 -17 -153 -44 l-148 -50 -3 -276 -2 -277 -135 0
-135 0 0 388 0 387 398 124 c218 69 404 128 412 132 33 18 125 9 176 -16z"/>
<path d="M4709 5207 c-115 -39 -193 -108 -247 -217 -24 -50 -27 -66 -27 -165
0 -102 2 -115 31 -175 57 -120 172 -207 306 -230 172 -30 350 65 431 230 30
60 32 72 32 170 0 94 -3 111 -28 164 -55 117 -136 189 -255 226 -84 26 -161
25 -243 -3z"/>
</g>
</svg>
