<?xml version="1.0" standalone="no"?>
<!DOCTYPE svg PUBLIC "-//W3C//DTD SVG 20010904//EN"
 "http://www.w3.org/TR/2001/REC-SVG-20010904/DTD/svg10.dtd">
<svg version="1.0" xmlns="http://www.w3.org/2000/svg"
 width="230.000000pt" height="230.000000pt" viewBox="0 0 230.000000 230.000000"
 preserveAspectRatio="xMidYMid meet">
<metadata>
Created by potrace 1.14, written by Peter Selinger 2001-2017
</metadata>
<g transform="translate(0.000000,230.000000) scale(0.100000,-0.100000)"
fill="#000000" stroke="none">
<path d="M0 1150 l0 -1150 1150 0 1150 0 0 1150 0 1150 -1150 0 -1150 0 0
-1150z m1737 775 c217 -97 276 -321 151 -569 -52 -105 -146 -245 -240 -359
l-47 -57 -56 67 c-130 158 -249 360 -280 475 -24 90 -17 204 16 273 79 168
287 245 456 170z m-956 -510 c26 -17 49 -58 49 -88 0 -44 -57 -97 -105 -97
-46 0 -105 53 -105 94 0 86 90 136 161 91z m-84 -225 c18 -10 40 -32 49 -47
79 -130 118 -164 211 -183 l54 -12 -3 -46 c-3 -43 -5 -47 -31 -50 -55 -7 -216
66 -231 103 -12 31 -23 13 -35 -56 l-13 -71 51 -52 51 -52 0 -192 0 -192 -50
0 -50 0 0 152 0 152 -47 48 c-26 26 -50 48 -54 48 -3 0 -11 -26 -18 -57 -17
-75 -59 -257 -72 -305 -10 -37 -10 -38 -59 -38 -41 0 -50 3 -50 18 0 9 16 96
35 192 20 96 42 209 49 250 8 41 22 112 31 158 10 46 15 85 13 88 -3 2 -21 -3
-41 -11 l-37 -15 0 -85 0 -85 -55 0 -55 0 0 119 0 119 38 15 c20 8 64 27 97
42 74 34 155 64 175 65 8 0 29 -9 47 -20z"/>
<path d="M1514 1686 c-30 -30 -34 -40 -34 -85 0 -44 4 -55 35 -86 31 -31 42
-35 86 -35 45 0 55 4 85 34 30 30 34 40 34 86 0 46 -4 56 -34 86 -30 30 -40
34 -86 34 -46 0 -56 -4 -86 -34z"/>
</g>
</svg>
