<svg width="800" height="800" xmlns="http://www.w3.org/2000/svg">
 <g id="Layer_1">
  <title>Layer 1</title>
  <rect stroke="#000" id="svg_5" height="800" width="800" y="0" x="0" stroke-width="0" fill="#004536"/>
  <g stroke="null">
   <g stroke="null">    
    <path stroke="null" d="m552.49999,118.21201c-72.28931,0 -130.75198,58.46267 -130.75198,130.75198c0,98.06399 130.75198,242.82214 130.75198,242.82214s130.75198,-144.75815 130.75198,-242.82214c0,-72.28931 -58.46007,-130.75198 -130.75198,-130.75198zm0,177.44615c-25.77468,0 -46.69937,-20.91688 -46.69937,-46.69677c0,-25.77728 20.92469,-46.69156 46.69937,-46.69156c25.77728,0 46.69937,20.92209 46.69937,46.69677c0,25.77468 -20.92209,46.69156 -46.69937,46.69156z" fill="#ffffff"/>
   </g>
  </g>
  <g stroke="null">
   <g stroke="null">
    <path stroke="null" d="m288.5676,352.71877c17.07073,0 30.73116,-13.66898 30.73116,-30.65633c0,-17.05149 -13.66043,-30.71833 -30.73116,-30.71833c-16.98948,0 -30.64564,13.66685 -30.64564,30.71833c-0.00214,16.98734 13.65402,30.65633 30.64564,30.65633l0,0zm1.74684,105.76198l83.52556,0l0,-30.74185l-61.37252,0l-34.06235,-56.20042c-5.16142,-8.58882 -15.40514,-15.40514 -25.64672,-15.40514c-3.40388,0 -5.09086,0 -8.50543,1.74898l-92.09299,28.96935l0,88.70194l30.71833,0l0,-63.11722l35.81988,-11.92l-66.53821,262.65703l30.71833,0l49.48886,-138.15445l39.21093,52.87778l0,85.27667l30.64991,0l0,-109.17655l-42.64047,-76.77979l11.99056,-49.47817l18.73632,30.74185zm0,0" fill="#ffffff"/>
   </g>
  </g>
 </g>

</svg>