<svg width="30.047" height="37.133" xmlns="http://www.w3.org/2000/svg" xml:space="preserve" enable-background="new 0 0 30.047 37.133" version="1.1">

 <g>
  <title>Layer 1</title>
  <g id="svg_1">
   <!--fill="#2A98EF"-->
   <path id="svg_2" d="m30,2.609c0,-1.441 -1.168,-2.609 -2.609,-2.609l-24.782,0c-1.441,0 -2.609,1.168 -2.609,2.609l0,22.565c0,1.131 0.72,2.09 1.725,2.451l13.295,8.867l13.343,-8.898c0.336,-0.135 0.639,-0.338 0.889,-0.592l0.001,-0.002l0,0c0.461,-0.47 0.747,-1.115 0.747,-1.826l0,-22.565z" fill="#004536"/>
   <path id="svg_3" d="m29,3.609c0,-1.441 -1.168,-2.609 -2.609,-2.609l-22.782,0c-1.441,0 -2.609,1.168 -2.609,2.609l0,20.565c0,1.131 0.72,2.09 1.725,2.451l12.295,7.867l12.343,-7.898c0.336,-0.135 0.639,-0.338 0.889,-0.592l0.001,-0.002l0,0c0.461,-0.47 0.747,-1.115 0.747,-1.826l0,-20.565z" fill="#004536"/>
  </g>
  <path id="svg_4" d="m3,7l24,0l0,24l-24,0l0,-24z" fill="none"/>
  <circle fill="#FFFFFF" r="1.2674" cy="8.87386" cx="10.15205"/>
  <path fill="#FFFFFF" d="m9.97656,18.17462l0,4.40666c-0.00663,0.80061 -1.19838,0.80061 -1.20891,0l0,-4.40666l-1.55988,0l1.67687,-5.88853l-0.27298,0l-0.97493,3.35373c-0.24646,0.74172 -1.24947,0.44145 -1.01392,-0.35097l1.09192,-3.62671c0.12557,-0.41649 0.65047,-1.15193 1.55988,-1.16991l0.81894,0l0.93593,0c0.88321,0.01798 1.41029,0.75966 1.55988,1.16991l1.09192,3.62671c0.2215,0.78852 -0.77355,1.11219 -1.01392,0.35097l-0.97493,-3.35373l-0.31198,0l1.71587,5.88853l-1.59888,0l0,4.40666c0.01248,0.80061 -1.17459,0.79671 -1.16991,0l0,-4.40666l-0.35097,0z"/>
  <circle fill="#FFFFFF" r="1.2674" cy="8.87386" cx="20.52527"/>
  <path fill="#FFFFFF" d="m19.17987,10.49223c-0.97454,0 -1.59888,0.84378 -1.59888,1.67687l0,3.89969c-0.00897,0.762 1.08825,0.762 1.09192,0l0,-3.58772l0.27298,0l0,9.90522c-0.01692,1.0342 1.44445,1.00456 1.44289,0l0,-5.77155l0.23398,0l0,5.77155c0.01911,1.00456 1.48813,1.0342 1.48189,0l0,-9.90522l0.27298,0l0,3.58772c-0.01287,0.76785 1.07866,0.76785 1.09192,0l0,-3.89969c-0.0156,-0.83309 -0.66334,-1.66193 -1.63788,-1.67687l-2.6518,0z"/>
 </g>
</svg>