<svg width="30.047" height="37.133" xmlns="http://www.w3.org/2000/svg" xml:space="preserve" enable-background="new 0 0 30.047 37.133" version="1.1">

 <g>
  <title>Layer 1</title>
  <g id="svg_1">
   <!--fill="#2A98EF"-->
   <path id="svg_2" d="m30,2.609c0,-1.441 -1.168,-2.609 -2.609,-2.609l-24.782,0c-1.441,0 -2.609,1.168 -2.609,2.609l0,22.565c0,1.131 0.72,2.09 1.725,2.451l13.295,8.867l13.343,-8.898c0.336,-0.135 0.639,-0.338 0.889,-0.592l0.001,-0.002l0,0c0.461,-0.47 0.747,-1.115 0.747,-1.826l0,-22.565z" fill="#004536"/>
   <path id="svg_3" d="m29,3.609c0,-1.441 -1.168,-2.609 -2.609,-2.609l-22.782,0c-1.441,0 -2.609,1.168 -2.609,2.609l0,20.565c0,1.131 0.72,2.09 1.725,2.451l12.295,7.867l12.343,-7.898c0.336,-0.135 0.639,-0.338 0.889,-0.592l0.001,-0.002l0,0c0.461,-0.47 0.747,-1.115 0.747,-1.826l0,-20.565z" fill="#004536"/>
  </g>
  <path id="svg_4" d="m3,7l24,0l0,24l-24,0l0,-24z" fill="none"/>
  <text xml:space="preserve" text-anchor="start" font-family="Noto Sans JP" font-size="24" stroke-width="0" id="svg_7" y="16.1843" x="16.33998" fill="#000000"/>
  <g stroke="null">
   <path fill="#ffffff" stroke="null" d="m17.51936,10.98966c0,-2.37782 -1.95769,-4.30525 -4.37279,-4.30525c-0.10996,0 -0.21788,0.00825 -0.32588,0.01615l-3.86275,0l0,0.00816l-1.97633,0l0,15.78232l2.21852,0l0,-7.20988l3.60503,0c0.16924,0.01944 0.1672,0.01384 0.3415,0.01384c2.4151,-0.00009 4.3727,-1.92734 4.3727,-4.30534zm-4.71429,2.07289l-3.60494,0l0,-4.15979l3.60503,0c1.05379,0.04943 2.01981,1.01306 2.01981,2.06259s-0.96611,2.04733 -2.0199,2.0972z"/>
   <path fill="#ffffff" stroke="null" d="m22.91745,18.60538c-0.07011,-0.14022 -0.26314,-0.30006 -0.26314,-0.30006l-0.79563,-2.12995c-0.16516,-0.40371 -0.65141,-0.61662 -0.86352,-0.61662l-4.17861,0c-0.21229,0 -0.69818,0.21291 -0.86343,0.61662l-0.7958,2.12995c0,0 -0.19258,0.15984 -0.26332,0.30006c-0.07064,0.13969 -0.14759,0.26474 -0.14759,1.20892c0,0.92129 0.18477,1.24842 0.40558,1.3621l0.17466,0.09869l0,0.85526c0,0.27716 0.06576,0.35961 0.32925,0.35961l0.59088,0c0.26314,0 0.44054,0.00106 0.44054,-0.27609l0,-0.83183l4.43704,0l0,0.83183c0,0.27716 0.17714,0.27609 0.44028,0.27609l0.59106,0c0.26332,0 0.32908,-0.08245 0.32908,-0.35961l0,-0.85526l0.17466,-0.09869c0.22098,-0.1136 0.40558,-0.44063 0.40593,-1.3621c0.00009,-0.94419 -0.07694,-1.06924 -0.14794,-1.20892zm-6.70038,-0.55015c0.03301,-0.12061 0.25409,-1.06498 0.35197,-1.39228c0.04029,-0.11298 0.30201,-0.44969 0.6073,-0.43052l3.45913,0c0.30512,-0.01926 0.5671,0.31745 0.60668,0.43052c0.09833,0.3273 0.31905,1.27167 0.35251,1.39228c0.0394,0.14306 -0.09061,0.13055 -0.09061,0.13055l-5.19628,0c0,-0.00009 -0.13037,0.01251 -0.0907,-0.13055zm0.08555,2.31215c-0.35073,0 -0.63588,-0.28586 -0.63588,-0.63552c0,-0.35038 0.28515,-0.63552 0.63588,-0.63552c0.35011,0 0.63517,0.28515 0.63517,0.63552c0.00018,0.34976 -0.28497,0.63552 -0.63517,0.63552zm5.22619,0c-0.35038,0 -0.63588,-0.28586 -0.63588,-0.63552c0,-0.35038 0.2855,-0.63552 0.63588,-0.63552c0.35002,0 0.63526,0.28515 0.63526,0.63552c0,0.34976 -0.28524,0.63552 -0.63526,0.63552z"/>
  </g>
 </g>
</svg>