<svg id="Layer_1" data-name="Layer 1" xmlns="http://www.w3.org/2000/svg" viewBox="0 0 20 28"><g id="Ellipse_245" data-name="Ellipse 245"><path d="M10.00049,13.55957a4,4,0,1,1,4-4A4.00427,4.00427,0,0,1,10.00049,13.55957Zm0-6a2,2,0,1,0,2,2A2.00229,2.00229,0,0,0,10.00049,7.55957Z" fill="#fff"/></g><g id="Path_2898" data-name="Path 2898"><path d="M10.00049,27.49512,9.1543,26.15234c-.53907-.85644-1.186-1.80175-1.874-2.80859C4.458,19.21582.94531,14.0791.94531,9.55957a9.05469,9.05469,0,1,1,18.10938,0c0,4.51953-3.5127,9.65723-6.335,13.78613-.6875,1.00586-1.334,1.9502-1.87305,2.80664Zm0-24.99024A7.06319,7.06319,0,0,0,2.94531,9.55957c0,3.90039,3.31885,8.75488,5.98584,12.65527.37158.544.73145,1.07032,1.06934,1.5752.3374-.50488.69678-1.03027,1.06836-1.57324,2.667-3.90137,5.98584-8.75586,5.98584-12.65723A7.06267,7.06267,0,0,0,10.00049,2.50488Z" fill="#fff"/></g></svg>