<?xml version="1.0" encoding="utf-8"?>
<!-- Generator: Adobe Illustrator 16.0.0, SVG Export Plug-In . SVG Version: 6.00 Build 0)  -->
<!DOCTYPE svg PUBLIC "-//W3C//DTD SVG 1.1//EN" "http://www.w3.org/Graphics/SVG/1.1/DTD/svg11.dtd">
<svg version="1.1" id="Layer_1" xmlns="http://www.w3.org/2000/svg" xmlns:xlink="http://www.w3.org/1999/xlink" x="0px" y="0px"
	 width="30.047px" height="37.133px" viewBox="0 0 30.047 37.133" enable-background="new 0 0 30.047 37.133" xml:space="preserve">
<g>
<!--fill="#2A98EF"-->
	<path fill="#481E50" d="M30,2.609C30,1.168,28.832,0,27.391,0H2.609C1.168,0,0,1.168,0,2.609v22.565c0,1.131,0.72,2.09,1.725,2.451
		l13.295,8.867l13.343-8.898c0.336-0.135,0.639-0.338,0.889-0.592L29.253,27l0,0C29.714,26.529,30,25.885,30,25.174V2.609z"/>
	<path fill="#481E50" d="M29,3.609C29,2.168,27.832,1,26.391,1H3.609C2.168,1,1,2.168,1,3.609v20.565c0,1.131,0.72,2.09,1.725,2.451
		l12.295,7.867l12.343-7.898c0.336-0.135,0.639-0.338,0.889-0.592L28.253,26l0,0C28.714,25.529,29,24.885,29,24.174V3.609z"/>
</g>
<path fill="none" d="M3,7h24v24H3V7z"/>
<path fill="#FFFFFF" d="M7.523,13v7h3v-7H7.523z M13.523,13v7h3v-7H13.523z M5.523,25h19v-3h-19V25z M19.523,13v7h3v-7H19.523z
	 M15.023,4l-9.5,5v2h19V9L15.023,4z"/>
</svg>
