<svg id="Layer_1" data-name="Layer 1" xmlns="http://www.w3.org/2000/svg" viewBox="0 0 24 18"><path id="Rectangle_1109" data-name="Rectangle 1109" d="M2,.5H2A1.5,1.5,0,0,1,3.5,2h0A1.5,1.5,0,0,1,2,3.5H2A1.5,1.5,0,0,1,.5,2h0A1.5,1.5,0,0,1,2,.5Z" fill="#fff"/><path id="Rectangle_1110" data-name="Rectangle 1110" d="M2,7.5H2A1.5,1.5,0,0,1,3.5,9h0A1.5,1.5,0,0,1,2,10.5H2A1.5,1.5,0,0,1,.5,9h0A1.5,1.5,0,0,1,2,7.5Z" fill="#fff"/><path id="Rectangle_1111" data-name="Rectangle 1111" d="M2,14.5H2A1.5,1.5,0,0,1,3.5,16h0A1.5,1.5,0,0,1,2,17.5H2A1.5,1.5,0,0,1,.5,16h0A1.5,1.5,0,0,1,2,14.5Z" fill="#fff"/><path id="Rectangle_1112" data-name="Rectangle 1112" d="M7.5,1h15a1,1,0,0,1,1,1h0a1,1,0,0,1-1,1H7.5a1,1,0,0,1-1-1h0A1,1,0,0,1,7.5,1Z" fill="#fff"/><path id="Rectangle_1113" data-name="Rectangle 1113" d="M7.5,8h7a1,1,0,0,1,1,1h0a1,1,0,0,1-1,1h-7a1,1,0,0,1-1-1h0A1,1,0,0,1,7.5,8Z" fill="#fff"/><path id="Rectangle_1114" data-name="Rectangle 1114" d="M7.5,15h11a1,1,0,0,1,1,1h0a1,1,0,0,1-1,1H7.5a1,1,0,0,1-1-1h0A1,1,0,0,1,7.5,15Z" fill="#fff"/></svg>