<?xml version="1.0" encoding="utf-8"?>
<!-- Generator: Adobe Illustrator 16.0.0, SVG Export Plug-In . SVG Version: 6.00 Build 0)  -->
<!DOCTYPE svg PUBLIC "-//W3C//DTD SVG 1.1//EN" "http://www.w3.org/Graphics/SVG/1.1/DTD/svg11.dtd">
<svg version="1.1" id="Layer_1" xmlns="http://www.w3.org/2000/svg" xmlns:xlink="http://www.w3.org/1999/xlink" x="0px" y="0px"
	 width="124px" height="200px" viewBox="0 0 124 200" enable-background="new 0 0 124 200" xml:space="preserve">
<g>
<!-- fill="#2b96ee" -->
	<path fill="#004536" d="M75.226,53.8c7.984,0,14.373-6.393,14.373-14.338c0-7.975-6.389-14.367-14.373-14.367
		c-7.946,0-14.333,6.392-14.333,14.367C60.892,47.407,67.279,53.8,75.226,53.8L75.226,53.8z M76.043,103.265h39.065V88.887H86.404
		L70.473,62.602c-2.414-4.017-7.205-7.205-11.995-7.205c-1.592,0-2.381,0-3.978,0.818L11.428,69.764v41.486h14.367V81.73
		l16.753-5.575L11.428,199h14.367l23.146-64.615l18.339,24.731V199h14.335v-51.062l-19.943-35.91l5.608-23.141L76.043,103.265z
		 M76.043,103.265"/>
</g>
</svg>
